ply
format ascii 1.0
element vertex 52
property float x
property float y
property float z
element face 48
property list uchar int vertex_indices
end_header
0 -1.4 0
1 -1.4 0
1 -1.1 0
0 -1.1 0
0 -1.4 0
0.866025 -1.4 -0.5
0.866025 -1.1 -0.5
0 -1.1 0
0 -1.4 0
0.5 -1.4 -0.866025
0.5 -1.1 -0.866025
0 -1.1 0
0 -1.4 0
2.67949e-08 -1.4 -1
2.67949e-08 -1.1 -1
0 -1.1 0
0 -1.4 -0
-0.5 -1.4 -0.866025
-0.5 -1.1 -0.866025
0 -1.1 -0
0 -1.4 -0
-0.866025 -1.4 -0.5
-0.866025 -1.1 -0.5
0 -1.1 -0
0 -1.4 -0
-1 -1.4 -5.35898e-08
-1 -1.1 -5.35898e-08
0 -1.1 -0
-0 -1.4 0
-0.866025 -1.4 0.5
-0.866025 -1.1 0.5
-0 -1.1 0
-0 -1.4 0
-0.5 -1.4 0.866025
-0.5 -1.1 0.866025
-0 -1.1 0
-0 -1.4 0
-8.03847e-08 -1.4 1
-8.03847e-08 -1.1 1
-0 -1.1 0
0 -1.4 0
0.5 -1.4 0.866025
0.5 -1.1 0.866025
0 -1.1 0
0 -1.4 0
0.866025 -1.4 0.5
0.866025 -1.1 0.5
0 -1.1 0
0 -1.4 0
1 -1.4 1.0718e-07
1 -1.1 1.0718e-07
0 -1.1 0
3 4 5 1
3 5 6 2
3 2 1 5
3 3 2 6
3 8 9 5
3 9 10 6
3 6 5 9
3 7 6 10
3 12 13 9
3 13 14 10
3 10 9 13
3 11 10 14
3 16 17 13
3 17 18 14
3 14 13 17
3 15 14 18
3 20 21 17
3 21 22 18
3 18 17 21
3 19 18 22
3 24 25 21
3 25 26 22
3 22 21 25
3 23 22 26
3 28 29 25
3 29 30 26
3 26 25 29
3 27 26 30
3 32 33 29
3 33 34 30
3 30 29 33
3 31 30 34
3 36 37 33
3 37 38 34
3 34 33 37
3 35 34 38
3 40 41 37
3 41 42 38
3 38 37 41
3 39 38 42
3 44 45 41
3 45 46 42
3 42 41 45
3 43 42 46
3 48 49 45
3 49 50 46
3 46 45 49
3 47 46 50

