ply
format ascii 1.0
element vertex 28
property float x
property float y
property float z
element face 24
property list uchar int vertex_indices
end_header
0 -1.4 0
1 -1.4 0
1 -1.1 0
0 -1.1 0
0 -1.4 0
0.866025 -1.4 -0.5
0.866025 -1.1 -0.5
0 -1.1 0
0 -1.4 0
0.5 -1.4 -0.866025
0.5 -1.1 -0.866025
0 -1.1 0
0 -1.4 0
2.67949e-08 -1.4 -1
2.67949e-08 -1.1 -1
0 -1.1 0
0 -1.4 -0
-0.5 -1.4 -0.866025
-0.5 -1.1 -0.866025
0 -1.1 -0
0 -1.4 -0
-0.866025 -1.4 -0.5
-0.866025 -1.1 -0.5
0 -1.1 -0
0 -1.4 -0
-1 -1.4 -5.35898e-08
-1 -1.1 -5.35898e-08
0 -1.1 -0
3 4 5 1
3 5 6 2
3 2 1 5
3 3 2 6
3 8 9 5
3 9 10 6
3 6 5 9
3 7 6 10
3 12 13 9
3 13 14 10
3 10 9 13
3 11 10 14
3 16 17 13
3 17 18 14
3 14 13 17
3 15 14 18
3 20 21 17
3 21 22 18
3 18 17 21
3 19 18 22
3 24 25 21
3 25 26 22
3 22 21 25
3 23 22 26