ply
format ascii 1.0
element vertex 28
property float32 x
property float32 y
property float32 z
element face 4
property list uchar uint vertex_indices
end_header
0.3 -1.4 0.0
0.3 -1.1 0.0
0.3 -0.6 0.0
0.3 -0.4 0.0
0.3 0 0.0
0.27 0.2 0.0
0.25 0.3 0.0
0.24 0.32 0.0
0.23 0.35 0.0
0.21 0.37 0.0
0.19 0.4 0.0
0.175 0.41 0.0
0.16 0.42 0.0
0.15 0.43 0.0
0.14 0.44 0.0
0.13 0.45 0.0
0.12 0.46 0.0
0.11 0.47 0.0
0.1 0.5 0.0
0.1 0.6 0.0
0.1 0.8 0.0
0.1 0.9 0.0
0.1 1.0 0.0
0.1 1.26 0.0
0.12 1.27 0.0
0.12 1.34 0.0
0.1 1.35 0.0
0.1 1.4 0.0

3 0 1 2
3 3 4 5
3 6 7 8
3 9 10 8
